<svg width="117" height="39" viewBox="0 0 117 39" fill="none" xmlns="http://www.w3.org/2000/svg">
<g filter="url(#filter0_i)">
<path d="M11.25 38.9C9.15 38.9 7.3 38.5333 5.7 37.8C4.1 37.0667 2.86667 36.05 2 34.75C1.13333 33.4167 0.7 31.8833 0.7 30.15C0.7 28.6833 1 27.35 1.6 26.15C2.23333 24.95 3.06667 24 4.1 23.3C5.16667 22.6 6.33333 22.25 7.6 22.25C8.76667 22.25 9.75 22.55 10.55 23.15C11.35 23.7167 11.85 24.5167 12.05 25.55C10.3167 25.55 8.93333 26.0167 7.9 26.95C6.86667 27.85 6.35 29.0833 6.35 30.65C6.35 32.0833 6.78333 33.2333 7.65 34.1C8.51667 34.9667 9.66667 35.4 11.1 35.4C12.8667 35.4 14.3167 34.8167 15.45 33.65C16.6167 32.45 17.2 30.95 17.2 29.15C17.2 27.5833 16.7667 26.1 15.9 24.7C15.0333 23.3 13.7333 21.6 12 19.6C10.2 17.5333 8.83333 15.7667 7.9 14.3C7 12.8 6.55 11.1667 6.55 9.4C6.55 7.66667 7.03333 6.11667 8 4.75C8.96667 3.35 10.3 2.25 12 1.45C13.7 0.649998 15.6167 0.249997 17.75 0.249997C20.45 0.249997 22.6 0.883331 24.2 2.15C25.8333 3.41667 26.65 5.11667 26.65 7.25C26.65 8.65 26.3 9.78333 25.6 10.65C24.9 11.5167 23.9833 11.95 22.85 11.95C21.5833 11.95 20.5667 11.4333 19.8 10.4C20.4333 9.93333 20.9333 9.31666 21.3 8.55C21.6667 7.78333 21.85 6.98333 21.85 6.15C21.85 5.08333 21.5333 4.23333 20.9 3.6C20.2667 2.96667 19.4 2.65 18.3 2.65C16.9667 2.65 15.8667 3.13333 15 4.1C14.1667 5.03333 13.75 6.23333 13.75 7.7C13.75 9.03333 14.1333 10.2833 14.9 11.45C15.6667 12.5833 16.8667 14.05 18.5 15.85C19.8333 17.2833 20.9 18.5167 21.7 19.55C22.5333 20.5833 23.2333 21.7833 23.8 23.15C24.4 24.4833 24.7 25.9333 24.7 27.5C24.7 29.6333 24.1 31.5667 22.9 33.3C21.7333 35.0333 20.1167 36.4 18.05 37.4C16.0167 38.4 13.75 38.9 11.25 38.9ZM45.5656 38.3C43.5323 38.3 42.0323 37.7667 41.0656 36.7C40.1323 35.6 39.6656 34.25 39.6656 32.65C39.6656 31.95 39.749 31.1667 39.9156 30.3C40.0823 29.4 40.249 28.5333 40.4156 27.7C40.6156 26.8667 40.749 26.3333 40.8156 26.1C41.0823 24.9333 41.3323 23.7833 41.5656 22.65C41.799 21.5167 41.9156 20.6 41.9156 19.9C41.9156 18.2 41.3156 17.35 40.1156 17.35C39.249 17.35 38.4823 17.7833 37.8156 18.65C37.149 19.4833 36.6156 20.5833 36.2156 21.95L32.8156 38H25.6156L32.8656 4L40.2656 3L37.5656 15.6C39.2323 13.7333 41.1823 12.8 43.4156 12.8C45.1156 12.8 46.4656 13.2667 47.4656 14.2C48.4656 15.1333 48.9656 16.55 48.9656 18.45C48.9656 19.4167 48.849 20.5 48.6156 21.7C48.3823 22.8667 48.049 24.3 47.6156 26C47.349 27.0333 47.099 28.05 46.8656 29.05C46.6656 30.0167 46.5656 30.7833 46.5656 31.35C46.5656 32.0167 46.7156 32.5333 47.0156 32.9C47.3156 33.2667 47.8323 33.45 48.5656 33.45C49.5656 33.45 50.3656 33.1 50.9656 32.4C51.5656 31.6667 52.1656 30.55 52.7656 29.05H54.8656C53.6323 32.7167 52.199 35.1833 50.5656 36.45C48.9656 37.6833 47.299 38.3 45.5656 38.3ZM58.7598 38.3C56.8598 38.3 55.2764 37.65 54.0098 36.35C52.7431 35.05 52.1098 33.0167 52.1098 30.25C52.1098 27.7833 52.5931 25.2 53.5598 22.5C54.5598 19.7667 56.0264 17.4667 57.9598 15.6C59.9264 13.7 62.2598 12.75 64.9598 12.75C66.3264 12.75 67.3431 12.9833 68.0098 13.45C68.6764 13.9167 69.0098 14.5333 69.0098 15.3V15.65L69.5598 13H76.7598L73.1598 30C73.0264 30.5 72.9598 31.0333 72.9598 31.6C72.9598 33.0333 73.6431 33.75 75.0098 33.75C75.9431 33.75 76.7431 33.3167 77.4098 32.45C78.1098 31.5833 78.6598 30.45 79.0598 29.05H81.1598C79.9264 32.65 78.3931 35.1 76.5598 36.4C74.7598 37.6667 72.9431 38.3 71.1098 38.3C69.7098 38.3 68.5764 37.9167 67.7098 37.15C66.8764 36.35 66.3764 35.2 66.2098 33.7C65.2431 35.0667 64.1598 36.1833 62.9598 37.05C61.7931 37.8833 60.3931 38.3 58.7598 38.3ZM62.0098 33.45C62.8431 33.45 63.6598 33.0667 64.4598 32.3C65.2931 31.5 65.8598 30.4167 66.1598 29.05L68.5598 17.75C68.5598 17.3167 68.3931 16.9 68.0598 16.5C67.7264 16.0667 67.2098 15.85 66.5098 15.85C65.1764 15.85 63.9764 16.6333 62.9098 18.2C61.8431 19.7333 61.0098 21.6 60.4098 23.8C59.8098 25.9667 59.5098 27.8833 59.5098 29.55C59.5098 31.2167 59.7431 32.2833 60.2098 32.75C60.7098 33.2167 61.3098 33.45 62.0098 33.45ZM82.4781 13H89.6781L89.0281 16.1C90.1615 15.1 91.1781 14.3333 92.0781 13.8C93.0115 13.2667 94.0115 13 95.0781 13C96.1448 13 96.9781 13.3667 97.5781 14.1C98.2115 14.8333 98.5281 15.7167 98.5281 16.75C98.5281 17.7167 98.2115 18.5667 97.5781 19.3C96.9448 20.0333 96.0615 20.4 94.9281 20.4C94.1948 20.4 93.6948 20.2333 93.4281 19.9C93.1948 19.5333 93.0115 19.0167 92.8781 18.35C92.7781 17.9167 92.6781 17.6 92.5781 17.4C92.4781 17.2 92.2948 17.1 92.0281 17.1C91.3281 17.1 90.7281 17.25 90.2281 17.55C89.7615 17.8167 89.1448 18.3 88.3781 19L84.3781 38H77.1781L82.4781 13ZM104.927 38.3C102.494 38.3 100.594 37.6667 99.227 36.4C97.8603 35.1 97.177 33.0833 97.177 30.35C97.177 28.05 97.627 25.5167 98.527 22.75C99.427 19.9833 100.894 17.6 102.927 15.6C104.96 13.5667 107.544 12.55 110.677 12.55C114.344 12.55 116.177 14.15 116.177 17.35C116.177 19.2167 115.644 20.9333 114.577 22.5C113.51 24.0667 112.094 25.3333 110.327 26.3C108.56 27.2333 106.677 27.7667 104.677 27.9C104.61 28.6333 104.577 29.1333 104.577 29.4C104.577 32.1667 105.61 33.55 107.677 33.55C108.61 33.55 109.61 33.3 110.677 32.8C111.744 32.3 112.71 31.6667 113.577 30.9C112.677 35.8333 109.794 38.3 104.927 38.3ZM105.027 25.5C106.294 25.4667 107.477 25.05 108.577 24.25C109.71 23.45 110.61 22.4333 111.277 21.2C111.977 19.9333 112.327 18.6167 112.327 17.25C112.327 15.8833 111.91 15.2 111.077 15.2C109.91 15.2 108.744 16.2667 107.577 18.4C106.444 20.5 105.594 22.8667 105.027 25.5Z" fill="#16855B"/>
</g>
<defs>
<filter id="filter0_i" x="-0.300049" y="-0.75" width="116.477" height="39.65" filterUnits="userSpaceOnUse" color-interpolation-filters="sRGB">
<feFlood flood-opacity="0" result="BackgroundImageFix"/>
<feBlend mode="normal" in="SourceGraphic" in2="BackgroundImageFix" result="shape"/>
<feColorMatrix in="SourceAlpha" type="matrix" values="0 0 0 0 0 0 0 0 0 0 0 0 0 0 0 0 0 0 127 0" result="hardAlpha"/>
<feOffset dx="-1" dy="-1"/>
<feGaussianBlur stdDeviation="1"/>
<feComposite in2="hardAlpha" operator="arithmetic" k2="-1" k3="1"/>
<feColorMatrix type="matrix" values="0 0 0 0 0 0 0 0 0 0 0 0 0 0 0 0 0 0 0.25 0"/>
<feBlend mode="normal" in2="shape" result="effect1_innerShadow"/>
</filter>
</defs>
</svg>
